<svg width="19" height="18" viewBox="0 0 19 18" fill="none" xmlns="http://www.w3.org/2000/svg">
<path d="M13.2759 7.38796C13.2759 10.6398 10.6398 13.2759 7.38796 13.2759C4.13613 13.2759 1.5 10.6398 1.5 7.38796C1.5 4.13613 4.13613 1.5 7.38796 1.5C10.6398 1.5 13.2759 4.13613 13.2759 7.38796Z" stroke="white" stroke-width="3"/>
<path d="M13.6202 10.7601L12.5596 9.69942L10.4383 11.8207L11.4989 12.8814L13.6202 10.7601ZM15.6782 17.0607C16.264 17.6464 17.2137 17.6464 17.7995 17.0607C18.3853 16.4749 18.3853 15.5251 17.7995 14.9393L15.6782 17.0607ZM11.4989 12.8814L15.6782 17.0607L17.7995 14.9393L13.6202 10.7601L11.4989 12.8814Z" fill="white"/>
</svg>
