<?xml version="1.0" standalone="no"?>
<!DOCTYPE svg PUBLIC "-//W3C//DTD SVG 20010904//EN"
 "http://www.w3.org/TR/2001/REC-SVG-20010904/DTD/svg10.dtd">
<svg version="1.0" xmlns="http://www.w3.org/2000/svg"
 width="195.000000pt" height="195.000000pt" viewBox="0 0 195.000000 195.000000"
 preserveAspectRatio="xMidYMid meet">
<metadata>
Created by potrace 1.14, written by Peter Selinger 2001-2017
</metadata>
<g transform="translate(0.000000,195.000000) scale(0.100000,-0.100000)"
fill="#000000" stroke="none">
<path d="M845 1943 c-145 -23 -325 -96 -439 -177 -69 -49 -186 -169 -235 -239
-49 -72 -119 -224 -143 -312 -28 -106 -31 -354 -5 -457 91 -362 355 -632 716
-730 102 -28 351 -31 453 -5 362 91 637 360 729 716 29 109 35 283 15 397 -43
247 -179 468 -380 621 -80 60 -241 138 -341 164 -79 20 -299 34 -370 22z m437
-521 c90 -39 158 -131 174 -232 5 -31 18 -57 42 -84 19 -21 46 -64 61 -95 22
-47 26 -70 26 -141 0 -76 -4 -93 -33 -152 -37 -77 -92 -130 -169 -165 -107
-49 -223 -41 -329 23 l-58 35 -55 -30 c-245 -130 -541 16 -592 293 -40 217
113 429 340 468 59 10 81 9 148 -5 l78 -17 17 23 c24 34 89 76 140 93 56 18
152 12 210 -14z"/>
</g>
</svg>
